<?xml version="1.0"?>
<svg xmlns="http://www.w3.org/2000/svg" xmlns:xlink="http://www.w3.org/1999/xlink" xmlns:svgjs="http://svgjs.com/svgjs" version="1.1" width="512" height="512" x="0" y="0" viewBox="0 0 379.252 379.252" style="enable-background:new 0 0 512 512" xml:space="preserve"><g>
<g xmlns="http://www.w3.org/2000/svg">
	<path d="M369.559,105.003H49.981c-5.354,0-9.693,4.34-9.693,9.691v224.611c0,5.353,4.34,9.691,9.693,9.691h319.578   c5.354,0,9.693-4.338,9.693-9.691V114.694C379.252,109.343,374.912,105.003,369.559,105.003z M68.883,237.663   c-5.889,0-10.662-4.773-10.662-10.662c0-5.891,4.773-10.662,10.662-10.662c5.889,0,10.662,4.771,10.662,10.662   C79.545,232.89,74.772,237.663,68.883,237.663z M338.541,318.95H95.539V135.052h243.002V318.95z M365.277,258.423h-10.986v-62.844   h10.986V258.423z" fill="#ff9a41" data-original="#000000" style=""/>
	<path d="M49.876,96.269c0.647-0.055,1.216-0.451,1.491-1.039L80.59,32.847c0.275-0.588,0.216-1.279-0.155-1.813   c-0.372-0.533-1.003-0.834-1.646-0.771L10.136,36.13c-0.648,0.057-1.216,0.453-1.492,1.041C8.369,37.759,8.428,38.45,8.8,38.982   l9.632,13.809c-0.68,0.787-1.348,1.592-1.994,2.402c-4.229,5.307-7.581,10.736-9.958,16.125   c-3.961,8.846-6.067,17.811-6.439,27.404c-0.229,5.936,0.513,12.24,2.145,18.23c1.463,5.365,3.499,10.678,6.409,16.721   c0.308,0.639,0.952,1.029,1.638,1.029c0.009,0,0.018,0,0.027,0c1.001-0.004,1.811-0.816,1.811-1.818   c0-0.107-0.009-0.211-0.026-0.313c-0.111-5.041-0.131-9.596,0.628-14.115c0.939-5.592,2.425-10.656,4.542-15.48   c3.417-7.787,9.972-15.018,17.986-19.838c1.043-0.629,2.109-1.217,3.182-1.758l9.848,14.117   C48.601,96.031,49.23,96.331,49.876,96.269z" fill="#ff9a41" data-original="#000000" style=""/>
</g>
<g xmlns="http://www.w3.org/2000/svg">
</g>
<g xmlns="http://www.w3.org/2000/svg">
</g>
<g xmlns="http://www.w3.org/2000/svg">
</g>
<g xmlns="http://www.w3.org/2000/svg">
</g>
<g xmlns="http://www.w3.org/2000/svg">
</g>
<g xmlns="http://www.w3.org/2000/svg">
</g>
<g xmlns="http://www.w3.org/2000/svg">
</g>
<g xmlns="http://www.w3.org/2000/svg">
</g>
<g xmlns="http://www.w3.org/2000/svg">
</g>
<g xmlns="http://www.w3.org/2000/svg">
</g>
<g xmlns="http://www.w3.org/2000/svg">
</g>
<g xmlns="http://www.w3.org/2000/svg">
</g>
<g xmlns="http://www.w3.org/2000/svg">
</g>
<g xmlns="http://www.w3.org/2000/svg">
</g>
<g xmlns="http://www.w3.org/2000/svg">
</g>
</g></svg>
